<svg width="25" height="26" viewBox="0 0 25 26" fill="none" xmlns="http://www.w3.org/2000/svg">
<path d="M12.5 26C19.4036 26 25 20.5031 25 13.7222C25 6.94139 19.4036 1.44444 12.5 1.44444C5.59644 1.44444 0 6.94139 0 13.7222C0 20.5031 5.59644 26 12.5 26Z" fill="#F4900C"/>
<path d="M12.5 24.5556C19.4036 24.5556 25 19.0586 25 12.2778C25 5.49695 19.4036 0 12.5 0C5.59644 0 0 5.49695 0 12.2778C0 19.0586 5.59644 24.5556 12.5 24.5556Z" fill="#FFCC4D"/>
<path d="M12.5 23.1111C18.1853 23.1111 22.7941 18.5842 22.7941 13C22.7941 7.41579 18.1853 2.88889 12.5 2.88889C6.81471 2.88889 2.20588 7.41579 2.20588 13C2.20588 18.5842 6.81471 23.1111 12.5 23.1111Z" fill="#FFE8B6"/>
<path d="M12.5 22.3889C18.1853 22.3889 22.7941 17.862 22.7941 12.2778C22.7941 6.69356 18.1853 2.16667 12.5 2.16667C6.81471 2.16667 2.20588 6.69356 2.20588 12.2778C2.20588 17.862 6.81471 22.3889 12.5 22.3889Z" fill="#FFAC33"/>
<path d="M6.28162 7.84044C6.28162 7.44683 6.675 7.28939 6.675 7.28939L12.4676 4.61717L18.3154 7.28939C18.3154 7.28939 18.7184 7.3775 18.7184 7.84333V8.30628H6.28162V7.84044Z" fill="#FFE8B6"/>
<path d="M18.3301 9.27044C18.3301 8.84867 17.9588 8.50706 17.5015 8.50706H7.44779C6.98971 8.50706 6.67059 8.84867 6.67059 9.27044C6.67059 9.55717 6.82059 9.80417 7.05956 9.93489V10.4159H8.61397V10.0338H10.1684V10.4159H11.7228V10.0338H13.2772V10.4159H14.8316V10.0338H16.386V10.4159H17.9412V9.91539C18.1743 9.77961 18.3301 9.542 18.3301 9.27044ZM19.4956 17.3333C19.4956 17.4852 19.4342 17.6309 19.3248 17.7383C19.2155 17.8457 19.0671 17.9061 18.9125 17.9061H6.0875C5.93286 17.9061 5.78454 17.8457 5.67519 17.7383C5.56584 17.6309 5.50441 17.4852 5.50441 17.3333C5.50441 17.1814 5.56584 17.0358 5.67519 16.9284C5.78454 16.8209 5.93286 16.7606 6.0875 16.7606H18.9132C19.2346 16.7606 19.4956 17.017 19.4956 17.3333Z" fill="#F4900C"/>
<path d="M18.7184 8.81111C18.7184 8.91244 18.6774 9.00962 18.6045 9.08127C18.5315 9.15292 18.4326 9.19317 18.3294 9.19317H6.66985C6.57083 9.18718 6.47785 9.14433 6.40988 9.07334C6.34192 9.00234 6.30407 8.90856 6.30407 8.81111C6.30407 8.71366 6.34192 8.61988 6.40988 8.54889C6.47785 8.4779 6.57083 8.43504 6.66985 8.42906L18.3294 8.43122C18.3804 8.43103 18.4308 8.44071 18.478 8.45971C18.5251 8.47871 18.568 8.50665 18.6041 8.54193C18.6402 8.57722 18.6689 8.61916 18.6885 8.66535C18.7081 8.71153 18.7183 8.76107 18.7184 8.81111ZM8.225 9.25456H16.7757V10.1111H8.225V9.25456Z" fill="#F4900C"/>
<path d="M8.61324 15.0432C8.61324 15.4649 8.38088 15.8066 8.09485 15.8066H7.57647C7.29044 15.8066 7.05809 15.4649 7.05809 15.0432V9.25528C7.05809 8.8335 7.29044 8.49189 7.57647 8.49189H8.09485C8.38088 8.49189 8.61324 8.8335 8.61324 9.25528V15.0432ZM17.9412 15.0432C17.9412 15.4649 17.7096 15.8066 17.4228 15.8066H16.9044C16.6184 15.8066 16.386 15.4649 16.386 15.0432V9.25528C16.386 8.8335 16.6176 8.49189 16.9044 8.49189H17.4228C17.7088 8.49189 17.9412 8.8335 17.9412 9.25528V15.0432ZM11.7228 15.0432C11.7228 15.4649 11.4904 15.8066 11.2044 15.8066H10.686C10.4 15.8066 10.1676 15.4649 10.1676 15.0432V9.25528C10.1676 8.8335 10.4 8.49189 10.686 8.49189H11.2044C11.4904 8.49189 11.7228 8.8335 11.7228 9.25528V15.0432ZM14.8316 15.0432C14.8316 15.4649 14.5993 15.8066 14.3132 15.8066H13.7956C13.5096 15.8066 13.2772 15.4649 13.2772 15.0432V9.25528C13.2772 8.8335 13.5096 8.49189 13.7956 8.49189H14.3132C14.5993 8.49189 14.8316 8.8335 14.8316 9.25528V15.0432Z" fill="#FFD983"/>
<path d="M18.3301 15.4245C18.3301 15.8463 17.9824 16.1879 17.5529 16.1879H7.44779C7.24167 16.1879 7.04398 16.1075 6.89823 15.9643C6.75247 15.8211 6.67059 15.627 6.67059 15.4245C6.67059 15.222 6.75247 15.0279 6.89823 14.8847C7.04398 14.7415 7.24167 14.6611 7.44779 14.6611H17.5529C17.9816 14.6611 18.3301 15.0027 18.3301 15.4245Z" fill="#FFCC4D"/>
<path d="M19.1074 16.1879C19.1074 16.6097 18.7596 16.9513 18.3301 16.9513H6.66985C6.46373 16.9513 6.26604 16.8708 6.12029 16.7277C5.97453 16.5845 5.89265 16.3904 5.89265 16.1879C5.89265 15.9854 5.97453 15.7913 6.12029 15.6481C6.26604 15.5049 6.46446 15.4245 6.67059 15.4245H18.3301C18.7596 15.4245 19.1074 15.7661 19.1074 16.1879Z" fill="#FFD983"/>
<path d="M19.4956 16.7606C19.4956 16.9125 19.4342 17.0582 19.3248 17.1656C19.2155 17.273 19.0671 17.3333 18.9125 17.3333H6.0875C6.01093 17.3333 5.9351 17.3185 5.86436 17.2897C5.79362 17.261 5.72934 17.2188 5.67519 17.1656C5.62105 17.1124 5.5781 17.0493 5.5488 16.9798C5.51949 16.9103 5.50441 16.8358 5.50441 16.7606C5.50441 16.6854 5.51949 16.6109 5.5488 16.5414C5.5781 16.472 5.62105 16.4088 5.67519 16.3556C5.72934 16.3025 5.79362 16.2603 5.86436 16.2315C5.9351 16.2027 6.01093 16.1879 6.0875 16.1879H18.9132C19.2346 16.1879 19.4956 16.4443 19.4956 16.7606Z" fill="#FFD983"/>
<path d="M18.3301 8.87322C18.3301 8.45144 17.9588 8.10983 17.5015 8.10983H7.44779C6.98971 8.10983 6.67059 8.45144 6.67059 8.87322C6.67059 9.15994 6.82059 9.40694 7.05956 9.53767V10.0187H8.61397V9.63661H10.1684V10.0187H11.7228V9.63661H13.2772V10.0187H14.8316V9.63661H16.386V10.0187H17.9412V9.51817C18.1743 9.38239 18.3301 9.14478 18.3301 8.87322Z" fill="#FFCC4D"/>
<path d="M6.28162 8.27883C6.28162 7.88522 6.675 7.72778 6.675 7.72778L12.4676 5.05556L18.3154 7.72778C18.3154 7.72778 18.7184 7.81589 18.7184 8.28172V8.49189H6.28162V8.27883Z" fill="#FFD983"/>
<path d="M12.5 6.0255C12.5 6.0255 8.48897 7.88233 8.08897 8.04989C7.68824 8.21672 7.82206 8.49117 8.08971 8.49117H16.8912C17.3044 8.49117 17.2066 8.18133 16.8787 8.01378C16.5507 7.84694 12.5 6.0255 12.5 6.0255Z" fill="#FFAC33"/>
<path d="M18.7184 8.49189C18.7184 8.59322 18.6774 8.68967 18.6045 8.76132C18.5315 8.83297 18.4333 8.87322 18.3301 8.87322H6.67059C6.57156 8.86724 6.47785 8.82438 6.40988 8.75339C6.34192 8.6824 6.30407 8.58862 6.30407 8.49117C6.30407 8.39372 6.34192 8.29994 6.40988 8.22894C6.47785 8.15795 6.57083 8.11509 6.66985 8.10911L18.3294 8.11128C18.3804 8.11109 18.4308 8.12077 18.478 8.13977C18.5251 8.15876 18.568 8.1867 18.6041 8.22199C18.6402 8.25727 18.6689 8.29921 18.6885 8.3454C18.7081 8.39159 18.7183 8.44185 18.7184 8.49189Z" fill="#FFD983"/>
</svg>
