<svg width="25" height="25" viewBox="0 0 25 25" fill="none" xmlns="http://www.w3.org/2000/svg">
<path d="M7.52739 23.7899C7.52739 24.4579 8.06897 24.9995 8.73705 24.9995C9.4051 24.9995 9.94669 24.4579 9.94669 23.7899H7.52739ZM9.94669 8.84989C9.94669 8.18183 9.4051 7.64024 8.73705 7.64024C8.06897 7.64024 7.52739 8.18183 7.52739 8.84989H9.94669ZM15.053 23.7899C15.053 24.4579 15.5946 24.9995 16.2626 24.9995C16.9307 24.9995 17.4723 24.4579 17.4723 23.7899H15.053ZM17.4723 6.30318C17.4723 5.63512 16.9307 5.09353 16.2626 5.09353C15.5946 5.09353 15.053 5.63512 15.053 6.30318H17.4723ZM9.94669 23.7899V8.84989H7.52739V23.7899H9.94669ZM17.4723 23.7899V6.30318H15.053V23.7899H17.4723Z" fill="#FFAC33"/>
<path d="M15.0187 0C16.3811 0.0104285 17.4781 1.12045 17.4737 2.48208V3.82224C17.4857 3.82197 17.4982 3.82097 17.5103 3.82088H22.5478C23.9088 3.83319 25.0044 4.94264 25 6.30295V22.5098L24.9878 22.7623C24.8693 24.0098 23.8235 24.9902 22.5437 25H2.45497C1.09006 24.9893 -0.00859531 23.8747 5.06821e-05 22.5098V8.85021C-0.00465859 7.48855 1.0925 6.37879 2.45497 6.36813H7.49107C7.50317 6.36822 7.51567 6.36922 7.52773 6.36949V2.48208C7.52329 1.12165 8.61877 0.0121251 9.97993 0H15.0187ZM9.96228 2.43591C9.95266 2.44575 9.9474 2.45918 9.94734 2.47393V8.85835C9.94271 9.5245 9.39965 10.062 8.73346 10.06C8.06702 10.0579 7.52754 9.5163 7.52739 8.84989L7.52773 8.84206C7.52782 8.82677 7.52152 8.81269 7.51144 8.80268L7.47342 8.78639H2.47397L2.43596 8.80268C2.42575 8.81269 2.41959 8.82665 2.41966 8.84206V22.5247C2.41947 22.5549 2.44371 22.5802 2.47397 22.5804H22.5261C22.5563 22.58 22.5806 22.5548 22.5804 22.5247V6.29481C22.5803 6.27992 22.5739 6.26665 22.5641 6.25679L22.5261 6.2405H17.528L17.49 6.25679C17.4802 6.26665 17.4737 6.27993 17.4737 6.29481V6.30295C17.4737 6.9695 16.9345 7.51061 16.2679 7.51276C15.6015 7.51479 15.0584 6.97753 15.0541 6.3111V2.47393C15.054 2.4592 15.0487 2.44574 15.0391 2.43591L14.9997 2.41962H10.0017L9.96228 2.43591Z" fill="#FFAC33"/>
</svg>
